<svg width="40" height="40" viewBox="0 0 40 40" fill="none" xmlns="http://www.w3.org/2000/svg">
<circle cx="20" cy="20" r="20" fill="#FF6933"/>
<path d="M20.4248 20.3116C21.1807 19.6573 21.787 18.8481 22.2026 17.9388C22.6181 17.0295 22.8332 16.0414 22.8332 15.0416C22.8332 13.163 22.0869 11.3614 20.7585 10.033C19.4301 8.70459 17.6285 7.95831 15.7498 7.95831C13.8712 7.95831 12.0695 8.70459 10.7412 10.033C9.41278 11.3614 8.6665 13.163 8.6665 15.0416C8.66649 16.0414 8.88156 17.0295 9.2971 17.9388C9.71264 18.8481 10.3189 19.6573 11.0748 20.3116C9.0917 21.2096 7.40916 22.6598 6.22839 24.4888C5.04762 26.3177 4.41859 28.448 4.4165 30.625C4.4165 31.0007 4.56576 31.361 4.83144 31.6267C5.09711 31.8924 5.45745 32.0416 5.83317 32.0416C6.20889 32.0416 6.56923 31.8924 6.83491 31.6267C7.10058 31.361 7.24984 31.0007 7.24984 30.625C7.24984 28.3706 8.14537 26.2086 9.73943 24.6146C11.3335 23.0205 13.4955 22.125 15.7498 22.125C18.0042 22.125 20.1662 23.0205 21.7602 24.6146C23.3543 26.2086 24.2498 28.3706 24.2498 30.625C24.2498 31.0007 24.3991 31.361 24.6648 31.6267C24.9304 31.8924 25.2908 32.0416 25.6665 32.0416C26.0422 32.0416 26.4026 31.8924 26.6682 31.6267C26.9339 31.361 27.0832 31.0007 27.0832 30.625C27.0811 28.448 26.4521 26.3177 25.2713 24.4888C24.0905 22.6598 22.408 21.2096 20.4248 20.3116ZM15.7498 19.2916C14.9093 19.2916 14.0876 19.0424 13.3887 18.5754C12.6898 18.1084 12.145 17.4446 11.8233 16.6681C11.5017 15.8915 11.4175 15.0369 11.5815 14.2125C11.7455 13.3881 12.1503 12.6308 12.7446 12.0364C13.339 11.4421 14.0963 11.0373 14.9207 10.8733C15.7451 10.7093 16.5997 10.7935 17.3762 11.1152C18.1528 11.4368 18.8166 11.9816 19.2836 12.6805C19.7506 13.3794 19.9998 14.2011 19.9998 15.0416C19.9998 16.1688 19.5521 17.2498 18.755 18.0469C17.958 18.8439 16.877 19.2916 15.7498 19.2916ZM29.5482 19.745C30.4548 18.724 31.047 17.4628 31.2536 16.1131C31.4601 14.7634 31.2721 13.3828 30.7123 12.1375C30.1525 10.8921 29.2447 9.83511 28.0982 9.09366C26.9516 8.35222 25.6152 7.95795 24.2498 7.95831C23.8741 7.95831 23.5138 8.10757 23.2481 8.37325C22.9824 8.63892 22.8332 8.99926 22.8332 9.37498C22.8332 9.7507 22.9824 10.111 23.2481 10.3767C23.5138 10.6424 23.8741 10.7916 24.2498 10.7916C25.377 10.7916 26.458 11.2394 27.255 12.0364C28.0521 12.8335 28.4998 13.9145 28.4998 15.0416C28.4978 15.7857 28.3005 16.5163 27.9276 17.1602C27.5547 17.8041 27.0192 18.3388 26.3748 18.7108C26.1648 18.832 25.9894 19.005 25.8654 19.2134C25.7413 19.4217 25.6729 19.6584 25.6665 19.9008C25.6606 20.1413 25.716 20.3794 25.8275 20.5925C25.9391 20.8057 26.103 20.9869 26.304 21.1191L26.8565 21.4875L27.0407 21.5866C28.7483 22.3966 30.1889 23.6776 31.1929 25.2789C32.1968 26.8802 32.7223 28.7351 32.7073 30.625C32.7073 31.0007 32.8566 31.361 33.1223 31.6267C33.3879 31.8924 33.7483 32.0416 34.124 32.0416C34.4997 32.0416 34.8601 31.8924 35.1257 31.6267C35.3914 31.361 35.5407 31.0007 35.5407 30.625C35.5522 28.451 35.0078 26.3102 33.9589 24.4059C32.9101 22.5016 31.3917 20.8972 29.5482 19.745Z" fill="white"/>
</svg>
