<svg width="40" height="40" viewBox="0 0 40 40" fill="none" xmlns="http://www.w3.org/2000/svg">
<circle cx="20" cy="20" r="20" fill="#FF6933"/>
<path d="M24.2498 11.5H15.7498C15.3741 11.5 15.0138 11.6492 14.7481 11.9149C14.4824 12.1806 14.3332 12.5409 14.3332 12.9166V18.5833C14.3332 18.959 14.4824 19.3194 14.7481 19.585C15.0138 19.8507 15.3741 20 15.7498 20H24.2498C24.6256 20 24.9859 19.8507 25.2516 19.585C25.5172 19.3194 25.6665 18.959 25.6665 18.5833V12.9166C25.6665 12.5409 25.5172 12.1806 25.2516 11.9149C24.9859 11.6492 24.6256 11.5 24.2498 11.5ZM22.8332 17.1666H17.1665V14.3333H22.8332V17.1666ZM27.0832 5.83331H10.0832C9.70745 5.83331 9.34711 5.98257 9.08144 6.24824C8.81576 6.51392 8.6665 6.87426 8.6665 7.24998V32.75C8.6665 33.1257 8.81576 33.486 9.08144 33.7517C9.34711 34.0174 9.70745 34.1666 10.0832 34.1666H27.0832C28.2103 34.1666 29.2913 33.7189 30.0884 32.9219C30.8854 32.1248 31.3332 31.0438 31.3332 29.9166V10.0833C31.3332 8.95614 30.8854 7.87514 30.0884 7.07811C29.2913 6.28108 28.2103 5.83331 27.0832 5.83331ZM28.4998 29.9166C28.4998 30.2924 28.3506 30.6527 28.0849 30.9184C27.8192 31.1841 27.4589 31.3333 27.0832 31.3333H11.4998V8.66665H27.0832C27.4589 8.66665 27.8192 8.8159 28.0849 9.08158C28.3506 9.34725 28.4998 9.70759 28.4998 10.0833V29.9166Z" fill="white"/>
</svg>
