<svg width="40" height="40" viewBox="0 0 40 40" fill="none" xmlns="http://www.w3.org/2000/svg">
<circle cx="20" cy="20" r="20" fill="#FF6933"/>
<path d="M34.9279 26.6725L31.1971 23.2441C31.0538 23.1114 30.8833 23.006 30.6954 22.934C30.5075 22.8621 30.306 22.8251 30.1025 22.8251C29.899 22.8251 29.6975 22.8621 29.5096 22.934C29.3217 23.006 29.1512 23.1114 29.0079 23.2441L23.4887 28.3158C23.3459 28.4482 23.2328 28.6052 23.1561 28.7778C23.0794 28.9504 23.0405 29.1352 23.0417 29.3216V32.75C23.0417 33.1257 23.2041 33.486 23.4932 33.7517C23.7823 34.0174 24.1745 34.1666 24.5833 34.1666H28.3142C28.5171 34.1677 28.7182 34.132 28.906 34.0615C29.0939 33.991 29.2647 33.8871 29.4087 33.7558L34.9279 28.6841C35.0724 28.5524 35.1871 28.3958 35.2654 28.2231C35.3436 28.0505 35.3839 27.8653 35.3839 27.6783C35.3839 27.4913 35.3436 27.3061 35.2654 27.1335C35.1871 26.9609 35.0724 26.8042 34.9279 26.6725ZM27.6667 31.3333H26.125V29.9166L30.1025 26.2616L31.6442 27.6783L27.6667 31.3333ZM18.4167 31.3333H12.25C11.8411 31.3333 11.449 31.1841 11.1599 30.9184C10.8708 30.6527 10.7083 30.2924 10.7083 29.9166V10.0833C10.7083 9.70759 10.8708 9.34725 11.1599 9.08158C11.449 8.8159 11.8411 8.66665 12.25 8.66665H19.9583V12.9166C19.9583 14.0438 20.4456 15.1248 21.313 15.9219C22.1803 16.7189 23.3567 17.1666 24.5833 17.1666H29.2083V18.5833C29.2083 18.959 29.3708 19.3194 29.6599 19.585C29.949 19.8507 30.3411 20 30.75 20C31.1589 20 31.551 19.8507 31.8401 19.585C32.1292 19.3194 32.2917 18.959 32.2917 18.5833V15.75C32.2917 15.75 32.2917 15.75 32.2917 15.665C32.2756 15.5348 32.2446 15.4066 32.1992 15.2825V15.155C32.125 15.0093 32.0262 14.8754 31.9062 14.7583L22.6562 6.25831C22.5288 6.14812 22.3831 6.05726 22.2246 5.98915C22.1786 5.98314 22.1319 5.98314 22.0858 5.98915L21.5925 5.83331H12.25C11.0234 5.83331 9.84699 6.28108 8.97963 7.07811C8.11228 7.87514 7.625 8.95614 7.625 10.0833V29.9166C7.625 31.0438 8.11228 32.1248 8.97963 32.9219C9.84699 33.7189 11.0234 34.1666 12.25 34.1666H18.4167C18.8255 34.1666 19.2177 34.0174 19.5068 33.7517C19.7959 33.486 19.9583 33.1257 19.9583 32.75C19.9583 32.3743 19.7959 32.0139 19.5068 31.7482C19.2177 31.4826 18.8255 31.3333 18.4167 31.3333ZM23.0417 10.6641L27.0346 14.3333H24.5833C24.1745 14.3333 23.7823 14.1841 23.4932 13.9184C23.2041 13.6527 23.0417 13.2924 23.0417 12.9166V10.6641ZM15.3333 22.8333H24.5833C24.9922 22.8333 25.3843 22.6841 25.6735 22.4184C25.9626 22.1527 26.125 21.7924 26.125 21.4166C26.125 21.0409 25.9626 20.6806 25.6735 20.4149C25.3843 20.1492 24.9922 20 24.5833 20H15.3333C14.9245 20 14.5323 20.1492 14.2432 20.4149C13.9541 20.6806 13.7917 21.0409 13.7917 21.4166C13.7917 21.7924 13.9541 22.1527 14.2432 22.4184C14.5323 22.6841 14.9245 22.8333 15.3333 22.8333ZM15.3333 17.1666H16.875C17.2839 17.1666 17.676 17.0174 17.9651 16.7517C18.2542 16.486 18.4167 16.1257 18.4167 15.75C18.4167 15.3743 18.2542 15.0139 17.9651 14.7482C17.676 14.4826 17.2839 14.3333 16.875 14.3333H15.3333C14.9245 14.3333 14.5323 14.4826 14.2432 14.7482C13.9541 15.0139 13.7917 15.3743 13.7917 15.75C13.7917 16.1257 13.9541 16.486 14.2432 16.7517C14.5323 17.0174 14.9245 17.1666 15.3333 17.1666ZM18.4167 25.6666H15.3333C14.9245 25.6666 14.5323 25.8159 14.2432 26.0816C13.9541 26.3473 13.7917 26.7076 13.7917 27.0833C13.7917 27.459 13.9541 27.8194 14.2432 28.085C14.5323 28.3507 14.9245 28.5 15.3333 28.5H18.4167C18.8255 28.5 19.2177 28.3507 19.5068 28.085C19.7959 27.8194 19.9583 27.459 19.9583 27.0833C19.9583 26.7076 19.7959 26.3473 19.5068 26.0816C19.2177 25.8159 18.8255 25.6666 18.4167 25.6666Z" fill="white"/>
</svg>
