<svg width="40" height="40" viewBox="0 0 40 40" fill="none" xmlns="http://www.w3.org/2000/svg">
<circle cx="20" cy="20" r="20" fill="#FF6933"/>
<path d="M33.1752 15.28C32.7771 14.8021 32.279 14.4173 31.716 14.153C31.153 13.8886 30.5388 13.751 29.9168 13.75H23.4568L24.2502 11.7241C24.5802 10.8371 24.69 9.88334 24.5704 8.94454C24.4508 8.00573 24.1052 7.10996 23.5633 6.33406C23.0215 5.55815 22.2995 4.92528 21.4592 4.48972C20.619 4.05416 19.6857 3.82892 18.7393 3.83332C18.4668 3.83388 18.2003 3.91304 17.9716 4.06129C17.7429 4.20954 17.5619 4.42059 17.4502 4.66915L13.4127 13.75H10.0835C8.95633 13.75 7.87532 14.1977 7.07829 14.9948C6.28126 15.7918 5.8335 16.8728 5.8335 18V27.9166C5.8335 29.0438 6.28126 30.1248 7.07829 30.9219C7.87532 31.7189 8.95633 32.1666 10.0835 32.1666H28.1177C29.1119 32.1663 30.0745 31.8174 30.8381 31.1807C31.6017 30.5439 32.1179 29.6596 32.2968 28.6817L34.096 18.765C34.2073 18.1521 34.1825 17.5223 34.0233 16.92C33.8642 16.3178 33.5747 15.7579 33.1752 15.28ZM12.9168 29.3333H10.0835C9.70777 29.3333 9.34744 29.1841 9.08176 28.9184C8.81609 28.6527 8.66683 28.2924 8.66683 27.9166V18C8.66683 17.6243 8.81609 17.2639 9.08176 16.9982C9.34744 16.7326 9.70777 16.5833 10.0835 16.5833H12.9168V29.3333ZM31.3335 18.255L29.5343 28.1716C29.474 28.5017 29.2985 28.7996 29.039 29.0123C28.7796 29.225 28.4531 29.3388 28.1177 29.3333H15.7502V15.4641L19.6035 6.79415C20.0001 6.90978 20.3685 7.10639 20.6853 7.37156C21.0022 7.63673 21.2606 7.96469 21.4443 8.33476C21.628 8.70483 21.733 9.10897 21.7527 9.52166C21.7723 9.93435 21.7062 10.3466 21.5585 10.7325L20.8077 12.7583C20.6477 13.1865 20.5937 13.6471 20.6502 14.1007C20.7068 14.5542 20.8723 14.9874 21.1326 15.3632C21.3928 15.739 21.7401 16.0462 22.1449 16.2587C22.5496 16.4711 22.9997 16.5825 23.4568 16.5833H29.9168C30.125 16.583 30.3306 16.6285 30.5191 16.7166C30.7077 16.8048 30.8745 16.9334 31.0077 17.0933C31.1441 17.251 31.2441 17.4369 31.3004 17.6377C31.3567 17.8385 31.368 18.0493 31.3335 18.255Z" fill="white"/>
</svg>
