<svg width="40" height="40" viewBox="0 0 40 40" fill="none" xmlns="http://www.w3.org/2000/svg">
<circle cx="20" cy="20" r="20" fill="#FF6933"/>
<path d="M30 21.9667V16.6667C29.9976 14.3052 29.1596 12.0208 27.6344 10.218C26.1091 8.41513 23.9951 7.21024 21.6667 6.81666V4.99999C21.6667 4.55797 21.4911 4.13404 21.1785 3.82148C20.866 3.50892 20.442 3.33333 20 3.33333C19.558 3.33333 19.1341 3.50892 18.8215 3.82148C18.5089 4.13404 18.3334 4.55797 18.3334 4.99999V6.81666C16.0049 7.21024 13.8909 8.41513 12.3657 10.218C10.8404 12.0208 10.0024 14.3052 10 16.6667V21.9667C9.02744 22.3105 8.18502 22.9468 7.58825 23.7882C6.99148 24.6297 6.66959 25.6351 6.66669 26.6667V30C6.66669 30.442 6.84228 30.8659 7.15484 31.1785C7.4674 31.4911 7.89133 31.6667 8.33335 31.6667H13.5667C13.9505 33.0789 14.7884 34.3257 15.951 35.2146C17.1137 36.1034 18.5365 36.585 20 36.585C21.4635 36.585 22.8864 36.1034 24.049 35.2146C25.2117 34.3257 26.0495 33.0789 26.4334 31.6667H31.6667C32.1087 31.6667 32.5326 31.4911 32.8452 31.1785C33.1578 30.8659 33.3334 30.442 33.3334 30V26.6667C33.3305 25.6351 33.0086 24.6297 32.4118 23.7882C31.815 22.9468 30.9726 22.3105 30 21.9667ZM13.3334 16.6667C13.3334 14.8986 14.0357 13.2029 15.286 11.9526C16.5362 10.7024 18.2319 9.99999 20 9.99999C21.7681 9.99999 23.4638 10.7024 24.7141 11.9526C25.9643 13.2029 26.6667 14.8986 26.6667 16.6667V21.6667H13.3334V16.6667ZM20 33.3333C19.4183 33.3298 18.8476 33.1741 18.3447 32.8817C17.8418 32.5894 17.4242 32.1705 17.1334 31.6667H22.8667C22.5758 32.1705 22.1582 32.5894 21.6553 32.8817C21.1524 33.1741 20.5817 33.3298 20 33.3333ZM30 28.3333H10V26.6667C10 26.2246 10.1756 25.8007 10.4882 25.4881C10.8007 25.1756 11.2247 25 11.6667 25H28.3334C28.7754 25 29.1993 25.1756 29.5119 25.4881C29.8244 25.8007 30 26.2246 30 26.6667V28.3333Z" fill="white"/>
</svg>
