<svg width="31" height="31" viewBox="0 0 31 31" fill="none" xmlns="http://www.w3.org/2000/svg">
<path d="M27.8957 20.0209C27.5495 19.849 27.1492 19.8216 26.7828 19.9446C26.4163 20.0677 26.1137 20.3311 25.9415 20.6772C25.0185 22.5412 23.6139 24.1246 21.8732 25.2633C20.1325 26.402 18.119 27.0546 16.0413 27.1536C13.9635 27.2525 11.8972 26.7941 10.0562 25.826C8.21514 24.8578 6.66645 23.415 5.57049 21.6471C4.47453 19.8792 3.87116 17.8504 3.82288 15.7709C3.7746 13.6914 4.28317 11.6368 5.29589 9.8199C6.30862 8.00302 7.78869 6.48993 9.58278 5.43737C11.3769 4.3848 13.4198 3.83103 15.4998 3.83343C17.6744 3.82401 19.8075 4.42789 21.6544 5.57577C23.5014 6.72365 24.9872 8.36901 25.9415 10.323C26.1155 10.6711 26.4207 10.9358 26.79 11.0589C27.1592 11.1819 27.5621 11.1533 27.9102 10.9793C28.2583 10.8052 28.523 10.5 28.6461 10.1308C28.7692 9.76159 28.7405 9.35861 28.5665 9.01051C27.1032 6.06576 24.6877 3.70197 21.7119 2.3028C18.7362 0.903634 15.3749 0.551215 12.1737 1.30275C8.97243 2.05428 6.11913 3.86565 4.07689 6.44285C2.03465 9.02006 0.92334 12.2118 0.92334 15.5001C0.92334 18.7884 2.03465 21.9801 4.07689 24.5573C6.11913 27.1345 8.97243 28.9459 12.1737 29.6974C15.3749 30.449 18.7362 30.0966 21.7119 28.6974C24.6877 27.2982 27.1032 24.9344 28.5665 21.9897C28.6534 21.8167 28.705 21.6281 28.7183 21.435C28.7315 21.2418 28.7062 21.0479 28.6437 20.8647C28.5813 20.6814 28.483 20.5124 28.3546 20.3676C28.2261 20.2227 28.0701 20.1049 27.8957 20.0209ZM28.6248 14.0418H14.6394L17.9936 10.7022C18.1295 10.5662 18.2374 10.4048 18.311 10.2271C18.3846 10.0495 18.4225 9.85906 18.4225 9.66676C18.4225 9.47447 18.3846 9.28405 18.311 9.1064C18.2374 8.92874 18.1295 8.76732 17.9936 8.63134C17.8576 8.49537 17.6962 8.38751 17.5185 8.31392C17.3409 8.24034 17.1505 8.20246 16.9582 8.20246C16.7659 8.20246 16.5755 8.24034 16.3978 8.31392C16.2201 8.38751 16.0587 8.49537 15.9227 8.63134L10.0894 14.4647C9.95664 14.6034 9.85257 14.7669 9.78316 14.9459C9.6373 15.301 9.6373 15.6992 9.78316 16.0543C9.85257 16.2333 9.95664 16.3968 10.0894 16.5355L15.9227 22.3688C16.0583 22.5055 16.2196 22.614 16.3973 22.6881C16.575 22.7621 16.7656 22.8002 16.9582 22.8002C17.1507 22.8002 17.3413 22.7621 17.519 22.6881C17.6967 22.614 17.858 22.5055 17.9936 22.3688C18.1303 22.2333 18.2388 22.072 18.3128 21.8943C18.3868 21.7166 18.4249 21.5259 18.4249 21.3334C18.4249 21.1409 18.3868 20.9503 18.3128 20.7726C18.2388 20.5949 18.1303 20.4336 17.9936 20.298L14.6394 16.9584H28.6248C29.0116 16.9584 29.3825 16.8048 29.656 16.5313C29.9295 16.2578 30.0832 15.8869 30.0832 15.5001C30.0832 15.1133 29.9295 14.7424 29.656 14.4689C29.3825 14.1954 29.0116 14.0418 28.6248 14.0418Z" fill="#FF6933"/>
</svg>
