<svg width="28" height="28" viewBox="0 0 28 28" fill="none" xmlns="http://www.w3.org/2000/svg">
<path d="M25.667 12.3334H15.667V2.33335C15.667 1.89133 15.4914 1.4674 15.1788 1.15484C14.8663 0.842282 14.4424 0.666687 14.0003 0.666687C13.5583 0.666687 13.1344 0.842282 12.8218 1.15484C12.5093 1.4674 12.3337 1.89133 12.3337 2.33335V12.3334H2.33366C1.89163 12.3334 1.46771 12.5089 1.15515 12.8215C0.842587 13.1341 0.666992 13.558 0.666992 14C0.666992 14.442 0.842587 14.866 1.15515 15.1785C1.46771 15.4911 1.89163 15.6667 2.33366 15.6667H12.3337V25.6667C12.3337 26.1087 12.5093 26.5326 12.8218 26.8452C13.1344 27.1578 13.5583 27.3334 14.0003 27.3334C14.4424 27.3334 14.8663 27.1578 15.1788 26.8452C15.4914 26.5326 15.667 26.1087 15.667 25.6667V15.6667H25.667C26.109 15.6667 26.5329 15.4911 26.8455 15.1785C27.1581 14.866 27.3337 14.442 27.3337 14C27.3337 13.558 27.1581 13.1341 26.8455 12.8215C26.5329 12.5089 26.109 12.3334 25.667 12.3334Z" fill="white"/>
</svg>
