<svg width="31" height="31" viewBox="0 0 31 31" fill="none" xmlns="http://www.w3.org/2000/svg">
<path d="M15.5 9.66666C14.3463 9.66666 13.2185 10.0088 12.2592 10.6498C11.2999 11.2907 10.5522 12.2018 10.1107 13.2677C9.66918 14.3336 9.55366 15.5065 9.77874 16.638C10.0038 17.7696 10.5594 18.809 11.3752 19.6248C12.191 20.4406 13.2304 20.9962 14.362 21.2212C15.4935 21.4463 16.6664 21.3308 17.7323 20.8893C18.7982 20.4478 19.7093 19.7001 20.3502 18.7408C20.9912 17.7815 21.3333 16.6537 21.3333 15.5C21.3333 13.9529 20.7187 12.4692 19.6248 11.3752C18.5308 10.2812 17.0471 9.66666 15.5 9.66666ZM15.5 18.4167C14.9231 18.4167 14.3592 18.2456 13.8796 17.9251C13.3999 17.6046 13.0261 17.1491 12.8053 16.6162C12.5846 16.0832 12.5268 15.4968 12.6394 14.931C12.7519 14.3652 13.0297 13.8455 13.4376 13.4376C13.8455 13.0297 14.3652 12.7519 14.931 12.6394C15.4968 12.5268 16.0832 12.5846 16.6162 12.8053C17.1491 13.0261 17.6046 13.3999 17.9251 13.8796C18.2456 14.3592 18.4167 14.9231 18.4167 15.5C18.4167 16.2735 18.1094 17.0154 17.5624 17.5624C17.0154 18.1094 16.2735 18.4167 15.5 18.4167ZM29.6604 14.4646L26.2333 11.125V6.22499C26.2333 5.83822 26.0797 5.46729 25.8062 5.1938C25.5327 4.9203 25.1618 4.76666 24.775 4.76666H19.9479L16.5354 1.33958C16.3998 1.20289 16.2385 1.0944 16.0608 1.02036C15.8831 0.946321 15.6925 0.908203 15.5 0.908203C15.3075 0.908203 15.1169 0.946321 14.9392 1.02036C14.7614 1.0944 14.6001 1.20289 14.4646 1.33958L11.125 4.76666H6.22499C5.83822 4.76666 5.46729 4.9203 5.1938 5.1938C4.9203 5.46729 4.76666 5.83822 4.76666 6.22499V11.125L1.33958 14.4646C1.20289 14.6001 1.0944 14.7614 1.02036 14.9392C0.946321 15.1169 0.908203 15.3075 0.908203 15.5C0.908203 15.6925 0.946321 15.8831 1.02036 16.0608C1.0944 16.2385 1.20289 16.3998 1.33958 16.5354L4.76666 19.9479V24.775C4.76666 25.1618 4.9203 25.5327 5.1938 25.8062C5.46729 26.0797 5.83822 26.2333 6.22499 26.2333H11.125L14.5375 29.6604C14.6731 29.7971 14.8344 29.9056 15.0121 29.9796C15.1898 30.0537 15.3804 30.0918 15.5729 30.0918C15.7654 30.0918 15.956 30.0537 16.1338 29.9796C16.3115 29.9056 16.4728 29.7971 16.6083 29.6604L20.0208 26.2333H24.8479C25.2347 26.2333 25.6056 26.0797 25.8791 25.8062C26.1526 25.5327 26.3062 25.1618 26.3062 24.775V19.9479L29.7333 16.5354C29.8654 16.3951 29.9683 16.23 30.0361 16.0497C30.104 15.8693 30.1354 15.6773 30.1286 15.4848C30.1218 15.2922 30.077 15.1029 29.9966 14.9278C29.9162 14.7527 29.802 14.5953 29.6604 14.4646ZM23.7542 18.3146C23.6164 18.4496 23.5067 18.6107 23.4316 18.7884C23.3565 18.9662 23.3175 19.157 23.3167 19.35V23.3167H19.35C19.157 23.3175 18.9662 23.3565 18.7884 23.4316C18.6107 23.5067 18.4496 23.6164 18.3146 23.7542L15.5 26.5687L12.6854 23.7542C12.5503 23.6164 12.3893 23.5067 12.2115 23.4316C12.0338 23.3565 11.8429 23.3175 11.65 23.3167H7.68333V19.35C7.68252 19.157 7.64344 18.9662 7.56834 18.7884C7.49324 18.6107 7.38362 18.4496 7.24583 18.3146L4.43124 15.5L7.24583 12.6854C7.38362 12.5503 7.49324 12.3893 7.56834 12.2115C7.64344 12.0338 7.68252 11.8429 7.68333 11.65V7.68333H11.65C11.8429 7.68252 12.0338 7.64344 12.2115 7.56834C12.3893 7.49324 12.5503 7.38362 12.6854 7.24583L15.5 4.43124L18.3146 7.24583C18.4496 7.38362 18.6107 7.49324 18.7884 7.56834C18.9662 7.64344 19.157 7.68252 19.35 7.68333H23.3167V11.65C23.3175 11.8429 23.3565 12.0338 23.4316 12.2115C23.5067 12.3893 23.6164 12.5503 23.7542 12.6854L26.5687 15.5L23.7542 18.3146Z" fill="#FF6933"/>
</svg>
