<svg width="39" height="39" viewBox="0 0 39 39" fill="none" xmlns="http://www.w3.org/2000/svg">
<path d="M19.5 0.75C15.8634 0.756909 12.3073 1.82121 9.26484 3.81326C6.22236 5.80531 3.82484 8.63914 2.3643 11.9696C0.903755 15.3 0.443236 18.9833 1.03883 22.5708C1.63442 26.1583 3.26043 29.4952 5.71878 32.175V32.175C7.47457 34.0782 9.60555 35.5971 11.9774 36.636C14.3493 37.6749 16.9106 38.2112 19.5 38.2112C22.0894 38.2112 24.6508 37.6749 27.0226 36.636C29.3945 35.5971 31.5255 34.0782 33.2813 32.175V32.175C35.7396 29.4952 37.3656 26.1583 37.9612 22.5708C38.5568 18.9833 38.0963 15.3 36.6358 11.9696C35.1752 8.63914 32.7777 5.80531 29.7352 3.81326C26.6927 1.82121 23.1366 0.756909 19.5 0.75V0.75ZM19.5 34.5C15.6159 34.4941 11.8855 32.9818 9.09378 30.2812C9.94136 28.2179 11.3832 26.4531 13.2361 25.211C15.089 23.969 17.2694 23.3059 19.5 23.3059C21.7307 23.3059 23.911 23.969 25.7639 25.211C27.6168 26.4531 29.0587 28.2179 29.9063 30.2812C27.1146 32.9818 23.3842 34.4941 19.5 34.5ZM15.75 15.75C15.75 15.0083 15.97 14.2833 16.382 13.6666C16.7941 13.0499 17.3797 12.5693 18.065 12.2855C18.7502 12.0016 19.5042 11.9274 20.2316 12.0721C20.959 12.2167 21.6272 12.5739 22.1517 13.0983C22.6761 13.6228 23.0333 14.291 23.178 15.0184C23.3227 15.7458 23.2484 16.4998 22.9646 17.1851C22.6808 17.8703 22.2001 18.456 21.5834 18.868C20.9667 19.2801 20.2417 19.5 19.5 19.5C18.5055 19.5 17.5516 19.1049 16.8484 18.4016C16.1451 17.6984 15.75 16.7446 15.75 15.75ZM32.4563 27C30.781 24.1345 28.2027 21.9057 25.125 20.6625C26.0797 19.58 26.7018 18.245 26.9165 16.8177C27.1313 15.3904 26.9297 13.9315 26.3358 12.6159C25.742 11.3004 24.7811 10.1842 23.5686 9.40118C22.3561 8.6182 20.9434 8.20172 19.5 8.20172C18.0567 8.20172 16.644 8.6182 15.4315 9.40118C14.2189 10.1842 13.2581 11.3004 12.6642 12.6159C12.0704 13.9315 11.8688 15.3904 12.0835 16.8177C12.2983 18.245 12.9203 19.58 13.875 20.6625C10.7974 21.9057 8.21903 24.1345 6.54378 27C5.20868 24.7258 4.50326 22.1371 4.50003 19.5C4.50003 15.5218 6.08038 11.7064 8.89343 8.8934C11.7065 6.08035 15.5218 4.5 19.5 4.5C23.4783 4.5 27.2936 6.08035 30.1066 8.8934C32.9197 11.7064 34.5 15.5218 34.5 19.5C34.4968 22.1371 33.7914 24.7258 32.4563 27V27Z" fill="white"/>
</svg>
