<svg width="307" height="89" viewBox="0 0 307 89" fill="none" xmlns="http://www.w3.org/2000/svg">
<g filter="url(#filter0_f_115_43)">
<path d="M5.90692 3.89696C5.57387 2.8438 4.45012 2.26003 3.39696 2.59308C2.3438 2.92613 1.76003 4.04988 2.09308 5.10304L5.90692 3.89696ZM304.993 46.1661C305.085 45.0653 304.267 44.0986 303.166 44.0069L285.228 42.5121C284.127 42.4204 283.161 43.2383 283.069 44.3391C282.977 45.4398 283.795 46.4065 284.896 46.4983L300.841 47.827L299.512 63.7717C299.42 64.8725 300.238 65.8392 301.339 65.9309C302.44 66.0226 303.406 65.2047 303.498 64.1039L304.993 46.1661ZM2.09308 5.10304C6.9384 20.4247 17.6441 29.5834 31.2199 35.3338C44.7065 41.0464 61.1618 43.4574 77.7795 45.3003C94.5125 47.156 111.39 48.4365 126.181 51.8017C140.966 55.1654 153.233 60.5287 160.933 70.2424L164.067 67.7576C155.517 56.9713 142.159 51.3346 127.069 47.9014C111.985 44.4698 94.7375 43.1565 78.2204 41.3247C61.5881 39.4801 45.6684 37.1098 32.7801 31.6506C19.9809 26.2291 10.3116 17.8253 5.90692 3.89696L2.09308 5.10304ZM160.933 70.2424C169.533 81.0919 182.203 85.6064 196.245 86.2479C210.261 86.8883 225.847 83.6892 240.677 78.9033C255.528 74.1106 269.743 67.6861 281.059 61.7726C292.33 55.8826 300.867 50.4251 304.292 47.5268L301.708 44.4732C298.633 47.0749 290.42 52.3674 279.206 58.2274C268.038 64.0639 254.034 70.3894 239.448 75.0967C224.84 79.8108 209.77 82.8617 196.427 82.2521C183.109 81.6436 171.717 77.4081 164.067 67.7576L160.933 70.2424Z" fill="#484C52"/>
</g>
<defs>
<filter id="filter0_f_115_43" x="-0.000534058" y="0.499466" width="307.001" height="87.8299" filterUnits="userSpaceOnUse" color-interpolation-filters="sRGB">
<feFlood flood-opacity="0" result="BackgroundImageFix"/>
<feBlend mode="normal" in="SourceGraphic" in2="BackgroundImageFix" result="shape"/>
<feGaussianBlur stdDeviation="1" result="effect1_foregroundBlur_115_43"/>
</filter>
</defs>
</svg>
