<svg width="40" height="38" viewBox="0 0 40 38" fill="none" xmlns="http://www.w3.org/2000/svg">
<path d="M38.0816 16.7517C37.7873 16.4549 37.437 16.2193 37.0511 16.0585C36.6653 15.8977 36.2514 15.815 35.8333 15.815C35.4153 15.815 35.0014 15.8977 34.6155 16.0585C34.2296 16.2193 33.8794 16.4549 33.585 16.7517L23.1667 27.2017V3.16667C23.1667 2.32681 22.833 1.52136 22.2392 0.927496C21.6453 0.333631 20.8398 0 20 0C19.1601 0 18.3547 0.333631 17.7608 0.927496C17.167 1.52136 16.8333 2.32681 16.8333 3.16667V27.2017L6.41499 16.7517C5.81869 16.1554 5.00994 15.8204 4.16665 15.8204C3.32337 15.8204 2.51462 16.1554 1.91832 16.7517C1.32203 17.348 0.98703 18.1567 0.98703 19C0.98703 19.8433 1.32203 20.652 1.91832 21.2483L17.7517 37.0817C18.0528 37.37 18.4079 37.596 18.7967 37.7467C19.1757 37.9142 19.5856 38.0007 20 38.0007C20.4144 38.0007 20.8243 37.9142 21.2033 37.7467C21.592 37.596 21.9472 37.37 22.2483 37.0817L38.0816 21.2483C38.3785 20.9539 38.614 20.6037 38.7748 20.2178C38.9356 19.8319 39.0183 19.418 39.0183 19C39.0183 18.582 38.9356 18.1681 38.7748 17.7822C38.614 17.3963 38.3785 17.046 38.0816 16.7517Z" fill="#484C52"/>
</svg>
